<svg xmlns="http://www.w3.org/2000/svg" viewBox="0 0 120 120" fill="none">
  <rect width="120" height="120" rx="24" fill="#0d1117"/>
  <path d="M30 40 C30 30, 40 20, 60 20 C80 20, 90 30, 90 40 L90 80 C90 90, 80 100, 60 100 C40 100, 30 90, 30 80 Z" fill="#2d333b" stroke="#6d5dfc" stroke-width="2"/>
  <path d="M40 50 L60 50 L60 70 L40 70 Z" fill="#6d5dfc" opacity="0.3"/>
  <path d="M60 50 L80 50 L80 70 L60 70 Z" fill="#6d5dfc" opacity="0.5"/>
  <circle cx="50" cy="60" r="4" fill="#6d5dfc"/>
  <circle cx="70" cy="60" r="4" fill="#6d5dfc"/>
  <line x1="54" y1="60" x2="66" y2="60" stroke="#00d4aa" stroke-width="2"/>
  <path d="M45 80 L75 80" stroke="#8b949e" stroke-width="1.5" stroke-dasharray="4 2"/>
  <text x="60" y="45" text-anchor="middle" fill="#e6edf3" font-family="Inter, sans-serif" font-size="11" font-weight="bold">CoCache</text>
</svg>
