<?xml version="1.0" encoding="us-ascii" standalone="no"?><!--
  - Copyright [2021-present] [ahoo wang <ahoowang@qq.com> (https://github.com/Ahoo-Wang)].
  - Licensed under the Apache License, Version 2.0 (the "License");
  - you may not use this file except in compliance with the License.
  - You may obtain a copy of the License at
  -      http://www.apache.org/licenses/LICENSE-2.0
  - Unless required by applicable law or agreed to in writing, software
  - distributed under the License is distributed on an "AS IS" BASIS,
  - WITHOUT WARRANTIES OR CONDITIONS OF ANY KIND, either express or implied.
  - See the License for the specific language governing permissions and
  - limitations under the License.
  -->

<svg xmlns="http://www.w3.org/2000/svg" xmlns:xlink="http://www.w3.org/1999/xlink" contentStyleType="text/css" height="498px" preserveAspectRatio="none" style="width:502px;height:498px;background:#FFFFFF;" version="1.1" viewBox="0 0 502 498" width="502px" zoomAndPan="magnify"><defs/><g><text fill="#000000" font-family="sans-serif" font-size="14" font-weight="bold" lengthAdjust="spacing" textLength="71" x="211.75" y="41.3125">JoinCache</text><text fill="#000000" font-family="sans-serif" font-size="14" font-weight="bold" lengthAdjust="spacing" text-decoration="underline" textLength="132" x="181.25" y="57.8008">Sequence Diagram</text><rect fill="#FFFFFF" height="235.4844" style="stroke:#181818;stroke-width:1.0;" width="10" x="18.5" y="158.2422"/><rect fill="#FFFFFF" height="214.1738" style="stroke:#181818;stroke-width:1.0;" width="10" x="110.5" y="179.5527"/><rect fill="#FFFFFF" height="29.3105" style="stroke:#181818;stroke-width:1.0;" width="10" x="204.5" y="208.8633"/><rect fill="#FFFFFF" height="29.3105" style="stroke:#181818;stroke-width:1.0;" width="10" x="313.5" y="267.4844"/><rect fill="#FFFFFF" height="29.3105" style="stroke:#181818;stroke-width:1.0;" width="10" x="432.5" y="326.1055"/><line style="stroke:#181818;stroke-width:0.5;stroke-dasharray:5.0,5.0;" x1="23" x2="23" y1="148.2422" y2="402.7266"/><line style="stroke:#181818;stroke-width:0.5;stroke-dasharray:5.0,5.0;" x1="115.5" x2="115.5" y1="148.2422" y2="402.7266"/><line style="stroke:#181818;stroke-width:0.5;stroke-dasharray:5.0,5.0;" x1="209.5" x2="209.5" y1="148.2422" y2="402.7266"/><line style="stroke:#181818;stroke-width:0.5;stroke-dasharray:5.0,5.0;" x1="318.5" x2="318.5" y1="148.2422" y2="402.7266"/><line style="stroke:#181818;stroke-width:0.5;stroke-dasharray:5.0,5.0;" x1="437.5" x2="437.5" y1="148.2422" y2="402.7266"/><text fill="#000000" font-family="sans-serif" font-size="14" lengthAdjust="spacing" textLength="31" x="5" y="145.2891">User</text><ellipse cx="23.5" cy="80.2539" fill="#E2E2F0" rx="8" ry="8" style="stroke:#181818;stroke-width:0.5;"/><path d="M23.5,88.2539 L23.5,115.2539 M10.5,96.2539 L36.5,96.2539 M23.5,115.2539 L10.5,130.2539 M23.5,115.2539 L36.5,130.2539 " fill="none" style="stroke:#181818;stroke-width:0.5;"/><text fill="#000000" font-family="sans-serif" font-size="14" lengthAdjust="spacing" textLength="31" x="5" y="415.2617">User</text><ellipse cx="23.5" cy="426.7148" fill="#E2E2F0" rx="8" ry="8" style="stroke:#181818;stroke-width:0.5;"/><path d="M23.5,434.7148 L23.5,461.7148 M10.5,442.7148 L36.5,442.7148 M23.5,461.7148 L10.5,476.7148 M23.5,461.7148 L36.5,476.7148 " fill="none" style="stroke:#181818;stroke-width:0.5;"/><rect fill="#E2E2F0" height="30.4883" rx="2.5" ry="2.5" style="stroke:#181818;stroke-width:0.5;" width="82" x="74.5" y="116.7539"/><text fill="#000000" font-family="sans-serif" font-size="14" lengthAdjust="spacing" textLength="68" x="81.5" y="137.2891">JoinCache</text><rect fill="#E2E2F0" height="30.4883" rx="2.5" ry="2.5" style="stroke:#181818;stroke-width:0.5;" width="82" x="74.5" y="401.7266"/><text fill="#000000" font-family="sans-serif" font-size="14" lengthAdjust="spacing" textLength="68" x="81.5" y="422.2617">JoinCache</text><rect fill="#E2E2F0" height="30.4883" rx="2.5" ry="2.5" style="stroke:#181818;stroke-width:0.5;" width="86" x="166.5" y="116.7539"/><text fill="#000000" font-family="sans-serif" font-size="14" lengthAdjust="spacing" textLength="72" x="173.5" y="137.2891">FirstCache</text><rect fill="#E2E2F0" height="30.4883" rx="2.5" ry="2.5" style="stroke:#181818;stroke-width:0.5;" width="86" x="166.5" y="401.7266"/><text fill="#000000" font-family="sans-serif" font-size="14" lengthAdjust="spacing" textLength="72" x="173.5" y="422.2617">FirstCache</text><rect fill="#E2E2F0" height="30.4883" rx="2.5" ry="2.5" style="stroke:#181818;stroke-width:0.5;" width="112" x="262.5" y="116.7539"/><text fill="#000000" font-family="sans-serif" font-size="14" lengthAdjust="spacing" textLength="98" x="269.5" y="137.2891">ExtractJoinKey</text><rect fill="#E2E2F0" height="30.4883" rx="2.5" ry="2.5" style="stroke:#181818;stroke-width:0.5;" width="112" x="262.5" y="401.7266"/><text fill="#000000" font-family="sans-serif" font-size="14" lengthAdjust="spacing" textLength="98" x="269.5" y="422.2617">ExtractJoinKey</text><rect fill="#E2E2F0" height="30.4883" rx="2.5" ry="2.5" style="stroke:#181818;stroke-width:0.5;" width="106" x="384.5" y="116.7539"/><text fill="#000000" font-family="sans-serif" font-size="14" lengthAdjust="spacing" textLength="92" x="391.5" y="137.2891">SecondCache</text><rect fill="#E2E2F0" height="30.4883" rx="2.5" ry="2.5" style="stroke:#181818;stroke-width:0.5;" width="106" x="384.5" y="401.7266"/><text fill="#000000" font-family="sans-serif" font-size="14" lengthAdjust="spacing" textLength="92" x="391.5" y="422.2617">SecondCache</text><rect fill="#FFFFFF" height="235.4844" style="stroke:#181818;stroke-width:1.0;" width="10" x="18.5" y="158.2422"/><rect fill="#FFFFFF" height="214.1738" style="stroke:#181818;stroke-width:1.0;" width="10" x="110.5" y="179.5527"/><rect fill="#FFFFFF" height="29.3105" style="stroke:#181818;stroke-width:1.0;" width="10" x="204.5" y="208.8633"/><rect fill="#FFFFFF" height="29.3105" style="stroke:#181818;stroke-width:1.0;" width="10" x="313.5" y="267.4844"/><rect fill="#FFFFFF" height="29.3105" style="stroke:#181818;stroke-width:1.0;" width="10" x="432.5" y="326.1055"/><polygon fill="#181818" points="98.5,175.5527,108.5,179.5527,98.5,183.5527,102.5,179.5527" style="stroke:#181818;stroke-width:1.0;"/><line style="stroke:#181818;stroke-width:1.0;" x1="28.5" x2="104.5" y1="179.5527" y2="179.5527"/><text fill="#000000" font-family="sans-serif" font-size="13" lengthAdjust="spacing" textLength="50" x="35.5" y="174.8105">get(key)</text><polygon fill="#181818" points="192.5,204.8633,202.5,208.8633,192.5,212.8633,196.5,208.8633" style="stroke:#181818;stroke-width:1.0;"/><line style="stroke:#181818;stroke-width:1.0;" x1="120.5" x2="198.5" y1="208.8633" y2="208.8633"/><text fill="#000000" font-family="sans-serif" font-size="13" lengthAdjust="spacing" textLength="50" x="127.5" y="204.1211">get(key)</text><polygon fill="#181818" points="131.5,234.1738,121.5,238.1738,131.5,242.1738,127.5,238.1738" style="stroke:#181818;stroke-width:1.0;"/><line style="stroke:#181818;stroke-width:1.0;stroke-dasharray:2.0,2.0;" x1="125.5" x2="208.5" y1="238.1738" y2="238.1738"/><text fill="#000000" font-family="sans-serif" font-size="13" lengthAdjust="spacing" textLength="60" x="137.5" y="233.4316">firstValue</text><polygon fill="#181818" points="301.5,263.4844,311.5,267.4844,301.5,271.4844,305.5,267.4844" style="stroke:#181818;stroke-width:1.0;"/><line style="stroke:#181818;stroke-width:1.0;" x1="120.5" x2="307.5" y1="267.4844" y2="267.4844"/><text fill="#000000" font-family="sans-serif" font-size="13" lengthAdjust="spacing" textLength="112" x="127.5" y="262.7422">extract(firstValue)</text><polygon fill="#181818" points="131.5,292.7949,121.5,296.7949,131.5,300.7949,127.5,296.7949" style="stroke:#181818;stroke-width:1.0;"/><line style="stroke:#181818;stroke-width:1.0;stroke-dasharray:2.0,2.0;" x1="125.5" x2="317.5" y1="296.7949" y2="296.7949"/><text fill="#000000" font-family="sans-serif" font-size="13" lengthAdjust="spacing" textLength="46" x="137.5" y="292.0527">joinKey</text><polygon fill="#181818" points="420.5,322.1055,430.5,326.1055,420.5,330.1055,424.5,326.1055" style="stroke:#181818;stroke-width:1.0;"/><line style="stroke:#181818;stroke-width:1.0;" x1="120.5" x2="426.5" y1="326.1055" y2="326.1055"/><text fill="#000000" font-family="sans-serif" font-size="13" lengthAdjust="spacing" textLength="74" x="127.5" y="321.3633">get(joinKey)</text><polygon fill="#181818" points="131.5,351.416,121.5,355.416,131.5,359.416,127.5,355.416" style="stroke:#181818;stroke-width:1.0;"/><line style="stroke:#181818;stroke-width:1.0;stroke-dasharray:2.0,2.0;" x1="125.5" x2="436.5" y1="355.416" y2="355.416"/><text fill="#000000" font-family="sans-serif" font-size="13" lengthAdjust="spacing" textLength="79" x="137.5" y="350.6738">secondValue</text><polygon fill="#181818" points="39.5,380.7266,29.5,384.7266,39.5,388.7266,35.5,384.7266" style="stroke:#181818;stroke-width:1.0;"/><line style="stroke:#181818;stroke-width:1.0;stroke-dasharray:2.0,2.0;" x1="33.5" x2="109.5" y1="384.7266" y2="384.7266"/><text fill="#000000" font-family="sans-serif" font-size="13" lengthAdjust="spacing" textLength="58" x="45.5" y="379.9844">JoinValue</text><a href="https://github.com/Ahoo-Wang/CoCache" target="_top" title="https://github.com/Ahoo-Wang/CoCache" xlink:actuate="onRequest" xlink:href="https://github.com/Ahoo-Wang/CoCache" xlink:show="new" xlink:title="https://github.com/Ahoo-Wang/CoCache" xlink:type="simple"><text fill="#808080" font-family="sans-serif" font-size="10" lengthAdjust="spacing" text-decoration="underline" textLength="203" x="291.5" y="14.668">https://github.com/Ahoo-Wang/CoCache</text></a><a href="https://github.com/Ahoo-Wang/CoCache" target="_top" title="https://github.com/Ahoo-Wang/CoCache" xlink:actuate="onRequest" xlink:href="https://github.com/Ahoo-Wang/CoCache" xlink:show="new" xlink:title="https://github.com/Ahoo-Wang/CoCache" xlink:type="simple"><text fill="#808080" font-family="sans-serif" font-size="10" lengthAdjust="spacing" text-decoration="underline" textLength="203" x="145.75" y="488.8828">https://github.com/Ahoo-Wang/CoCache</text></a><!--SRC=[RL3DRiCW3Bxp5Duj4s8F44sxRDsXEqRTDKB4pUW8IOcHbhTVW6Y4TYVipz-FpOEsolWEmSXbzFGq-S4mHfeCikEexQjKNyZQji6hHwiGthJidHpQbg7j816PL3GwECtes2GTQQKdQGcomHvzrswcU_ZmGsxr2PeFN8fHWsgqNPAmaC9vUa6yv13EeOOUgVh6vJ4l7pWvalD_ESz2x4X2r70EtQSq7akhSisOYGcgikJMkXIjG0sNxSx2V7VetpKRyTPoHur-S-pJml5h0YbBwbYdyIy0]--></g></svg>